<svg width="30" height="40" viewBox="0 0 30 40" fill="none" xmlns="http://www.w3.org/2000/svg">
<path d="M28.2977 19.0549C27.5796 18.4851 26.7272 18.1793 25.833 18.1793C25.5134 18.1793 25.1891 18.2164 24.8694 18.2951C25.2725 17.3222 25.6802 16.3401 26.0693 15.3533C26.1342 15.1911 26.199 15.029 26.2639 14.8668C26.755 13.6437 27.3109 12.2585 27.4684 10.6602L27.4731 10.6324C27.7093 8.265 26.9125 6.6991 25.1057 5.97174C24.6053 5.77253 24.0957 5.6706 23.5861 5.6706C23.2247 5.6706 22.8032 5.72157 22.3584 5.87445C22.3908 5.31851 22.3862 4.74404 22.3167 4.15103C22.0109 1.44545 20.1207 0.671763 19.3193 0.463285C18.9903 0.379893 18.6568 0.333565 18.3325 0.333565C17.6236 0.333565 16.3125 0.546676 15.2192 1.92263C14.4316 0.495715 13.1066 0.12972 12.4626 0.0370628C12.2681 0.0138985 12.0735 0 11.8789 0C10.8272 0 9.354 0.407691 8.30698 2.35812C7.88076 3.15034 7.62595 3.94719 7.44063 4.69771C7.06537 4.51703 6.65305 4.39194 6.2083 4.32708C5.99055 4.29465 5.77281 4.28075 5.56433 4.28075C4.09572 4.28075 2.84022 5.04054 2.12213 6.36553C1.70517 7.13458 1.54302 7.9407 1.4272 8.52907L1.3994 8.67732C0.709107 12.0639 -0.0692111 16.5439 0.00491449 21.1767C0.11147 27.899 3.50735 32.6986 9.34937 34.473L12.2727 38.3692C12.458 38.6148 12.824 38.6148 13.0093 38.3692L15.7242 34.7464C21.7052 33.602 27.6908 29.0572 29.4003 23.975C30.2852 21.3435 29.2891 19.8471 28.2977 19.0549ZM26.9171 23.1272C25.24 28.1075 18.4112 32.3836 12.9074 32.3836C12.1337 32.3836 11.3878 32.3002 10.6883 32.1195C5.62919 30.8362 2.71976 26.9354 2.62711 21.1397C2.56225 17.1137 3.16915 13.1434 3.97063 9.2101C4.16521 8.25573 4.35979 6.92611 5.56896 6.92611C5.65236 6.92611 5.74501 6.93074 5.8423 6.94464C7.33871 7.16238 6.843 8.64026 6.94955 9.65485C7.00515 10.1923 6.89859 10.7482 6.88006 11.0262C6.88006 12.1844 6.86153 13.0693 6.88933 13.9541C6.90322 14.385 7.01441 14.8344 7.56572 14.8575C7.57499 14.8575 7.58425 14.8575 7.59352 14.8575C8.06607 14.8575 8.14483 14.4174 8.25138 14.0746C8.95094 11.7628 9.13162 9.34908 9.64124 7.00023C9.89141 5.84665 10.0536 4.66991 10.6234 3.61362C10.9106 3.07621 11.2674 2.64072 11.8882 2.64072C11.953 2.64072 12.0225 2.64536 12.0966 2.65462C12.8657 2.76581 13.0834 3.37735 13.1807 4.02594C13.5328 6.3748 12.8194 8.63099 12.546 10.9289C12.3978 12.1427 12.0735 13.3333 12.1476 14.5703C12.1708 14.9548 12.1939 15.3903 12.6619 15.4691C12.7035 15.4737 12.7406 15.4783 12.7777 15.4783C13.1483 15.4783 13.3382 15.1448 13.4865 14.8205C14.1119 13.4677 14.3158 11.9944 14.6957 10.5675C15.196 8.69122 15.65 6.80565 16.4376 5.02201C16.6415 4.56335 16.8916 4.11397 17.1789 3.70628C17.4707 3.28932 17.846 2.97429 18.3464 2.97429C18.4529 2.97429 18.5641 2.98819 18.6799 3.02062C19.4026 3.20593 19.6482 3.77577 19.7223 4.44753C19.8984 5.9949 19.5092 7.46815 19.1293 8.94139C18.5687 11.1049 17.9896 13.2638 17.4198 15.4227C17.2993 15.886 17.1603 16.4559 17.6607 16.6644C17.7348 16.6968 17.8089 16.7107 17.8784 16.7107C18.2537 16.7107 18.5131 16.2845 18.7309 15.9694C19.5277 14.8158 19.9679 13.4862 20.5794 12.2353C21.0612 11.2532 21.5986 10.2942 22.1731 9.36762C22.5206 8.81168 22.9699 8.32059 23.5954 8.32059C23.7622 8.32059 23.9475 8.35766 24.142 8.43641C25.0362 8.79778 24.9435 9.65485 24.8648 10.4054C24.7258 11.8091 24.1467 13.0924 23.6371 14.3804C22.692 16.7709 21.6635 19.129 20.6859 21.5103C20.4682 22.0385 20.0837 22.6361 20.6628 23.1364C20.9037 23.3449 21.1492 23.4283 21.3948 23.4283C21.7886 23.4283 22.1731 23.2152 22.5159 22.9697C23.2294 22.4554 23.8502 21.8068 24.5729 21.3111C24.9621 21.0424 25.4022 20.8293 25.8423 20.8293C26.1249 20.8293 26.4075 20.9173 26.6762 21.1304C27.3341 21.6632 27.1441 22.4461 26.9171 23.1272Z" fill="#FF2F7D"/>
<path d="M12.6344 40.0001C11.9302 40.0001 5.76855 39.9584 5.76855 38.4573C5.76855 38.2025 5.76856 37.4196 9.58139 37.049C9.7528 37.0443 9.93812 37.1694 9.95665 37.3594C9.97518 37.5493 9.83619 37.7161 9.64625 37.7346C7.48734 37.9431 6.67196 38.2998 6.48665 38.462C6.82948 38.777 8.8772 39.319 12.6344 39.319C16.3963 39.319 18.444 38.777 18.7822 38.462C18.6108 38.3137 17.9066 37.9941 16.0303 37.7809C15.8404 37.7578 15.706 37.591 15.7292 37.401C15.7523 37.2111 15.9238 37.0767 16.1091 37.0999C19.5003 37.4891 19.5003 38.2211 19.5003 38.462C19.5003 39.9584 13.3386 40.0001 12.6344 40.0001Z" fill="#FF2F7D"/>
</svg>
