<svg width="183" height="46" viewBox="0 0 183 46" fill="none" xmlns="http://www.w3.org/2000/svg">
<path d="M28.2547 3.50859C27.5884 2.96799 26.4946 2.69141 24.9734 2.69141C24.2694 2.69141 23.5654 2.7417 22.8488 2.85484C22.1447 2.95542 21.5916 3.04342 21.2018 3.11886L20.8624 12.8999L20.8247 14.1194L20.7618 15.9675H9.06982L9.18297 12.8999L9.40926 6.50073C9.45955 5.01723 9.15782 4.01147 8.50408 3.48345C7.85033 2.95542 6.74399 2.69141 5.19763 2.69141C4.53131 2.69141 3.82728 2.7417 3.09811 2.85484C2.36893 2.96799 1.82833 3.04342 1.47631 3.11886L1.13687 12.8999L1.09915 14.1194L0.784852 23.0581L0.483122 31.8334C0.432833 33.2414 0.721991 34.2346 1.36316 34.8004C1.99177 35.3661 3.11068 35.6427 4.69475 35.6427C5.4365 35.6427 6.15311 35.5924 6.86971 35.5044C7.57375 35.4164 8.0892 35.3158 8.41607 35.2152L8.86867 22.3666H20.5606L20.5355 23.0581L20.2338 31.8334C20.1835 33.2414 20.4726 34.2346 21.1138 34.8004C21.7424 35.3661 22.8613 35.6427 24.4454 35.6427C25.1872 35.6427 25.9038 35.5924 26.6204 35.5044C27.3244 35.4164 27.865 35.3158 28.217 35.2152L28.8456 17.2498L29.2228 6.55102C29.2354 5.06752 28.921 4.06176 28.2547 3.50859Z" fill="#F9F9F9"/>
<path d="M52.607 10.5482C50.8217 9.58015 48.7222 9.08984 46.2832 9.08984C44.6237 9.08984 43.0271 9.35386 41.4681 9.88188C39.9218 10.4099 38.5137 11.2145 37.2565 12.2831C35.9993 13.3643 34.981 14.7221 34.2015 16.3816C33.422 18.0411 32.9946 20.0024 32.9066 22.2528C32.7934 25.3203 33.3215 27.8725 34.4907 29.9217C35.6473 31.9709 37.3068 33.5047 39.4315 34.5231C41.5687 35.5414 43.9825 36.0568 46.6981 36.0568C48.5713 36.0568 50.2434 35.8808 51.7143 35.5288C53.1853 35.1768 54.3545 34.6488 55.2094 33.9447C56.0643 33.2407 56.5043 32.3607 56.542 31.3046C56.5671 30.6634 56.4163 30.0726 56.102 29.5068C55.7877 28.9411 55.3728 28.5011 54.8573 28.1868C54.0276 28.6519 52.959 29.0919 51.6389 29.5068C50.3188 29.9343 48.9233 30.148 47.4398 30.148C45.6043 30.148 44.0328 29.7331 42.7253 28.9034C41.6819 28.237 40.9778 27.2187 40.6007 25.8484L54.5305 23.7991C55.5991 23.6608 56.4288 23.3088 57.0574 22.7431C57.6735 22.1773 58.0004 21.3476 58.0381 20.2538C58.1135 18.0663 57.6735 16.1428 56.7054 14.4832C55.7625 12.8237 54.3922 11.5162 52.607 10.5482ZM40.3115 20.5555C40.5252 18.8457 41.1161 17.5005 42.1093 16.5199C43.2031 15.4387 44.5483 14.9107 46.1324 14.9107C47.6536 14.9107 48.785 15.3381 49.5268 16.1805C50.2685 17.0228 50.6583 17.9406 50.696 18.9337L40.3115 20.5555Z" fill="#F9F9F9"/>
<path d="M66.0462 0.365234C65.3045 0.365234 64.613 0.415524 63.9718 0.528672C63.3307 0.629248 62.8403 0.742397 62.4758 0.842973L61.7592 21.3102L61.382 31.9965C61.3317 33.3668 61.6586 34.3223 62.3375 34.8503C63.0289 35.3783 64.1101 35.6423 65.5936 35.6423C66.3354 35.6423 67.0268 35.5921 67.6554 35.5041C68.2966 35.416 68.7869 35.3155 69.1515 35.2149L69.491 25.5344L70.2453 4.06141C70.2956 2.65334 69.9813 1.6853 69.3149 1.15727C68.6486 0.629248 67.5674 0.365234 66.0462 0.365234Z" fill="#F9F9F9"/>
<path d="M93.969 10.498C91.9072 9.5677 89.5059 9.10254 86.8029 9.10254C84.7914 9.10254 82.9685 9.32884 81.3341 9.76886C79.6997 10.2089 78.342 10.762 77.2608 11.4409C76.5064 11.8935 75.9407 12.4216 75.5635 12.9999C75.1864 13.5782 74.9852 14.3199 74.9601 15.2L74.4321 30.4876L74.0423 41.4881C73.992 42.8961 74.3063 43.8642 74.9727 44.3922C75.639 44.9202 76.7202 45.1843 78.2037 45.1843C78.9454 45.1843 79.6369 45.134 80.278 45.0208C80.9192 44.9202 81.4095 44.8071 81.7741 44.7065L82.1136 35.1644C82.4782 35.3026 82.8553 35.4409 83.2576 35.5792C84.3011 35.9187 85.4954 36.0821 86.8406 36.0821C89.3048 36.0821 91.53 35.5667 93.5038 34.5232C95.4776 33.4797 97.0617 31.9585 98.2686 29.947C99.463 27.9354 100.117 25.4336 100.23 22.4415C100.343 19.3362 99.8401 16.8092 98.7463 14.848C97.6149 12.8741 96.0308 11.4284 93.969 10.498ZM90.3985 27.9732C89.2796 29.2052 87.7458 29.8212 85.8097 29.8212C84.716 29.8212 83.7479 29.6075 82.893 29.1926C82.6667 29.0795 82.453 28.9663 82.2393 28.8406L82.6793 16.2812C83.1445 16.0046 83.7102 15.7657 84.3639 15.5646C85.0177 15.376 85.7594 15.2754 86.5641 15.2754C87.7584 15.2754 88.7893 15.5268 89.6568 16.0172C90.5242 16.5075 91.178 17.2744 91.618 18.3178C92.058 19.3613 92.2466 20.7191 92.1838 22.4163C92.1209 24.893 91.5174 26.7411 90.3985 27.9732Z" fill="#F9F9F9"/>
<path d="M137.28 10.0453C135.721 9.41672 134.011 9.08984 132.188 9.08984C130.038 9.08984 128.215 9.41672 126.707 10.0705C125.663 10.5231 124.708 11.0385 123.815 11.6168C122.922 10.8751 121.917 10.2842 120.798 9.88188C119.339 9.35386 117.755 9.08984 116.071 9.08984C114.235 9.08984 112.462 9.34128 110.753 9.83159C109.043 10.3219 107.597 10.9756 106.403 11.7928C105.686 12.2454 105.12 12.7734 104.731 13.3518C104.341 13.9301 104.127 14.6718 104.102 15.5519L103.901 21.3727L103.888 21.7122L103.813 23.8117L103.524 32.0086C103.473 33.379 103.788 34.3345 104.454 34.8625C105.12 35.3905 106.202 35.6545 107.685 35.6545C108.427 35.6545 109.118 35.6042 109.747 35.5162C110.388 35.4282 110.878 35.3277 111.243 35.2271L111.733 21.3727L111.909 16.3439C112.337 16.0925 112.865 15.8536 113.493 15.6273C114.122 15.401 114.813 15.2879 115.593 15.2879C116.649 15.2879 117.516 15.5644 118.208 16.1302C118.899 16.6959 119.214 17.576 119.176 18.7703L119 23.7991L118.711 31.9961C118.66 33.3664 118.975 34.3219 119.641 34.8499C120.307 35.378 121.401 35.642 122.922 35.642C123.664 35.642 124.356 35.5917 124.984 35.5037C125.625 35.4157 126.116 35.3151 126.48 35.2145L126.92 22.6048L127.096 17.752C127.109 17.4 127.084 17.0354 127.033 16.6833C127.486 16.3439 127.989 16.0422 128.567 15.7782C129.296 15.4387 130.076 15.2753 130.881 15.2753C131.974 15.2753 132.842 15.5519 133.495 16.1176C134.149 16.6833 134.451 17.5634 134.413 18.7577L134.237 23.7865L133.948 31.9835C133.898 33.3539 134.212 34.3093 134.878 34.8374C135.545 35.3654 136.638 35.6294 138.16 35.6294C138.901 35.6294 139.593 35.5791 140.222 35.4911C140.863 35.4031 141.34 35.3025 141.655 35.2019L142.145 21.3476L142.246 18.544C142.321 16.2559 141.919 14.4204 141.014 13.0375C140.083 11.6797 138.851 10.6739 137.28 10.0453Z" fill="#F9F9F9"/>
<path d="M165.428 10.5482C163.643 9.58015 161.543 9.08984 159.105 9.08984C157.445 9.08984 155.848 9.35386 154.289 9.88188C152.73 10.4099 151.335 11.2145 150.078 12.2831C148.821 13.3643 147.802 14.7221 147.023 16.3816C146.243 18.0411 145.816 20.0024 145.728 22.2528C145.615 25.3203 146.143 27.8725 147.312 29.9217C148.469 31.9709 150.128 33.5047 152.253 34.5231C154.39 35.5414 156.804 36.0568 159.519 36.0568C161.393 36.0568 163.065 35.8808 164.536 35.5288C166.007 35.1768 167.176 34.6488 168.031 33.9447C168.886 33.2407 169.326 32.3607 169.363 31.3046C169.388 30.6634 169.238 30.0726 168.923 29.5068C168.609 28.9411 168.194 28.5011 167.679 28.1868C166.849 28.6519 165.78 29.0919 164.46 29.5068C163.14 29.9343 161.745 30.148 160.261 30.148C158.426 30.148 156.854 29.7331 155.547 28.9034C154.503 28.237 153.799 27.2187 153.422 25.8484L167.352 23.7991C168.42 23.6608 169.25 23.3088 169.879 22.7431C170.495 22.1773 170.822 21.3476 170.859 20.2538C170.935 18.0663 170.495 16.1428 169.527 14.4832C168.584 12.8237 167.213 11.5162 165.428 10.5482ZM153.133 20.5555C153.347 18.8457 153.937 17.5005 154.931 16.5199C156.024 15.4387 157.37 14.9107 158.954 14.9107C160.475 14.9107 161.606 15.3381 162.348 16.1805C163.09 17.0228 163.48 17.9406 163.517 18.9337L153.133 20.5555Z" fill="#F9F9F9"/>
<path d="M181.595 2.71611C181.055 2.20066 180.25 1.94922 179.194 1.94922C177.849 1.94922 176.604 2.26352 175.46 2.90469C175.41 4.35048 175.372 6.02256 175.334 7.9335C175.297 9.83188 175.284 11.7931 175.284 13.7795C175.284 15.7659 175.309 17.6014 175.36 19.2483C175.41 20.9078 175.473 22.1902 175.548 23.1079C175.636 23.7743 175.925 24.2394 176.428 24.5034C176.931 24.7675 177.535 24.9057 178.239 24.9057C178.666 24.9057 179.131 24.8429 179.647 24.7172C180.162 24.5914 180.552 24.4406 180.803 24.2646C180.992 22.8188 181.18 21.197 181.369 19.3992C181.558 17.6014 181.721 15.7784 181.847 13.9555C181.985 12.12 182.098 10.4228 182.186 8.85126C182.274 7.27976 182.337 6.03513 182.375 5.11737C182.4 4.03618 182.149 3.23157 181.595 2.71611Z" fill="#F9F9F9"/>
<path d="M178.176 28.1875C176.944 28.1875 175.963 28.5521 175.234 29.2938C174.505 30.0356 174.115 30.9659 174.077 32.0974C174.04 33.2289 174.354 34.1592 175.033 34.901C175.712 35.6427 176.667 36.0073 177.899 36.0073C179.131 36.0073 180.112 35.6427 180.854 34.901C181.583 34.1592 181.972 33.2289 182.01 32.0974C182.048 30.9659 181.734 30.0356 181.055 29.2938C180.363 28.5521 179.408 28.1875 178.176 28.1875Z" fill="#F9F9F9"/>
</svg>
