<svg width="51" height="68" viewBox="0 0 51 68" fill="none" xmlns="http://www.w3.org/2000/svg">
<g id="Group">
<g id="Group_2">
<g id="Group_3">
<g id="Group_4">
<path id="Vector" d="M48.0483 32.0084C46.8413 31.0529 45.4081 30.5375 43.9121 30.5375C43.3715 30.5375 42.8309 30.6003 42.2903 30.7386C42.9692 29.1042 43.648 27.4573 44.3018 25.7978C44.4024 25.5212 44.5155 25.2572 44.6287 24.9806C45.4584 22.9314 46.3887 20.6056 46.6528 17.9151V17.8649C47.0425 13.8921 45.7099 11.252 42.68 10.045C41.8377 9.7056 40.9828 9.54217 40.1279 9.54217C39.5118 9.54217 38.8078 9.63017 38.0661 9.88161C38.1289 8.95128 38.1163 7.98324 38.0032 6.97748C37.4877 2.4264 34.307 1.13148 32.9744 0.779466C32.4212 0.641173 31.8681 0.565741 31.3149 0.565741C30.1205 0.565741 27.9204 0.93033 26.0849 3.23101C24.7649 0.842326 22.5396 0.226296 21.4584 0.0628601C21.119 0.0251441 20.7921 0 20.4778 0C18.7177 0 16.241 0.691462 14.4809 3.96019C13.7643 5.29282 13.3369 6.62546 13.0226 7.89523C12.394 7.5935 11.7025 7.37978 10.9482 7.2792C10.5836 7.21634 10.219 7.1912 9.867 7.1912C7.40289 7.1912 5.29079 8.46097 4.08387 10.6862C3.37984 11.9811 3.11583 13.3263 2.91467 14.3195L2.86439 14.571C1.70776 20.2661 0.400268 27.7842 0.525988 35.5788C0.701996 46.8685 6.4097 54.9272 16.2159 57.9193L21.119 64.4568C21.4333 64.8717 22.0493 64.8717 22.3636 64.4568L26.9272 58.3719C36.9723 56.4484 47.0299 48.8172 49.8963 40.2808C51.3924 35.8428 49.7203 33.341 48.0483 32.0084ZM45.7224 38.8476C42.9063 47.2205 31.4406 54.3992 22.2002 54.3992C20.9052 54.3992 19.648 54.2609 18.4663 53.9591C9.96758 51.7967 5.08963 45.2467 4.9262 35.5034C4.82562 28.7397 5.84396 22.0765 7.18916 15.4636C7.51604 13.8669 7.84291 11.6291 9.867 11.6291C10.0053 11.6291 10.1687 11.6417 10.3196 11.6668C12.834 12.0314 12.0042 14.5207 12.1803 16.2179C12.2808 17.1231 12.0923 18.0534 12.0671 18.5186C12.0671 20.4547 12.0294 21.9508 12.0797 23.4343C12.1048 24.1509 12.2808 24.9178 13.2112 24.9429C13.2237 24.9429 13.2489 24.9429 13.2615 24.9429C14.0535 24.9429 14.1918 24.2137 14.3678 23.6354C15.537 19.7507 15.8387 15.7025 16.6936 11.7548C17.1085 9.81875 17.3851 7.84495 18.3406 6.05972C18.8183 5.15453 19.4217 4.42535 20.4652 4.42535C20.5784 4.42535 20.6915 4.43793 20.8172 4.4505C22.1122 4.63908 22.4767 5.66998 22.6402 6.75118C23.2311 10.6988 22.0367 14.4955 21.5716 18.3426C21.3201 20.3793 20.7795 22.3908 20.9052 24.4652C20.943 25.1063 20.9807 25.8355 21.7727 25.9738C21.8356 25.9864 21.8984 25.9864 21.9613 25.9864C22.5899 25.9864 22.9042 25.4332 23.1556 24.88C24.1991 22.6045 24.5511 20.1278 25.1923 17.7391C26.0346 14.5961 26.8015 11.4154 28.1216 8.42326C28.461 7.65636 28.8885 6.90204 29.3662 6.21058C29.8565 5.50655 30.4851 4.97852 31.3275 4.97852C31.5035 4.97852 31.692 5.00367 31.8932 5.05396C33.1001 5.36826 33.515 6.32373 33.6407 7.44264C33.9299 10.045 33.2887 12.5217 32.6475 14.9859C31.7046 18.6192 30.7366 22.2399 29.7685 25.8732C29.5674 26.6527 29.3285 27.6082 30.1708 27.9602C30.2965 28.0105 30.4223 28.0356 30.5354 28.0356C31.164 28.0356 31.604 27.319 31.9686 26.791C33.3013 24.8549 34.043 22.6171 35.0739 20.5175C35.8785 18.8706 36.7837 17.2614 37.7518 15.7025C38.3301 14.7721 39.0844 13.9424 40.1404 13.9424C40.4296 13.9424 40.7313 14.0052 41.0582 14.131C42.5668 14.7344 42.4034 16.1802 42.2777 17.4374C42.0388 19.7884 41.0708 21.9508 40.2159 24.1131C38.6318 28.1362 36.9094 32.0964 35.2625 36.0817C34.8979 36.9743 34.2567 37.9801 35.2248 38.8098C35.6271 39.1619 36.042 39.3002 36.4568 39.3002C37.1106 39.3002 37.7643 38.9481 38.3301 38.5333C39.537 37.6784 40.5679 36.5846 41.7874 35.7423C42.4411 35.2897 43.1829 34.9251 43.9246 34.9251C44.4024 34.9251 44.8675 35.076 45.3327 35.4405C46.439 36.3834 46.1122 37.7035 45.7224 38.8476Z" fill="#F9F9F9"/>
</g>
<g id="Group_5">
<g id="Group_6">
<path id="Vector_2" d="M21.7473 67.1853C20.5655 67.1853 10.2188 67.1099 10.2188 64.5955C10.2188 64.1681 10.2188 62.848 16.6179 62.232C16.9071 62.2194 17.2214 62.4331 17.2465 62.7474C17.2717 63.0617 17.0454 63.3509 16.7311 63.376C13.1103 63.728 11.74 64.3315 11.4257 64.5955C12.004 65.1235 15.4361 66.0287 21.7599 66.0287C28.071 66.0287 31.5158 65.1235 32.0941 64.5955C31.8049 64.3441 30.6231 63.816 27.4676 63.4515C27.1533 63.4137 26.927 63.1246 26.9647 62.8103C27.0024 62.496 27.2916 62.2697 27.6059 62.3074C33.301 62.9612 33.301 64.1932 33.301 64.5955C33.2758 67.1099 22.9291 67.1853 21.7473 67.1853Z" fill="#F9F9F9"/>
</g>
</g>
</g>
</g>
</g>
</svg>
