<svg width="32" height="32" viewBox="0 0 32 32" fill="none" xmlns="http://www.w3.org/2000/svg">
<rect x="0.5" y="0.5" width="30.9986" height="31" rx="15.4993" stroke="#CCCCCC"/>
<path d="M24.2245 23.0264C23.0073 20.9222 21.1317 19.4134 18.9428 18.6982C20.0255 18.0536 20.8667 17.0715 21.3373 15.9025C21.8078 14.7336 21.8816 13.4426 21.5473 12.2276C21.2131 11.0127 20.4892 9.9411 19.487 9.17736C18.4848 8.41363 17.2595 8 15.9995 8C14.7394 8 13.5142 8.41363 12.512 9.17736C11.5097 9.9411 10.7859 11.0127 10.4517 12.2276C10.1174 13.4426 10.1912 14.7336 10.6617 15.9025C11.1322 17.0715 11.9734 18.0536 13.0562 18.6982C10.8673 19.4126 8.99163 20.9214 7.77451 23.0264C7.72987 23.0992 7.70027 23.1802 7.68744 23.2646C7.67461 23.349 7.67881 23.4351 7.6998 23.5179C7.7208 23.6006 7.75815 23.6783 7.80966 23.7464C7.86117 23.8145 7.9258 23.8716 7.99973 23.9143C8.07366 23.957 8.15539 23.9844 8.2401 23.9951C8.32482 24.0057 8.4108 23.9992 8.49297 23.976C8.57514 23.9529 8.65184 23.9135 8.71855 23.8602C8.78525 23.8069 8.84061 23.7408 8.88135 23.6658C10.387 21.0637 13.0482 19.5101 15.9995 19.5101C18.9508 19.5101 21.612 21.0637 23.1176 23.6658C23.1584 23.7408 23.2137 23.8069 23.2804 23.8602C23.3471 23.9135 23.4238 23.9529 23.506 23.976C23.5882 23.9992 23.6742 24.0057 23.7589 23.9951C23.8436 23.9844 23.9253 23.957 23.9992 23.9143C24.0732 23.8716 24.1378 23.8145 24.1893 23.7464C24.2408 23.6783 24.2782 23.6006 24.2992 23.5179C24.3202 23.4351 24.3244 23.349 24.3115 23.2646C24.2987 23.1802 24.2691 23.0992 24.2245 23.0264ZM11.5242 13.7561C11.5242 12.871 11.7866 12.0058 12.2784 11.2698C12.7702 10.5338 13.4691 9.96022 14.2869 9.6215C15.1046 9.28277 16.0045 9.19414 16.8726 9.36683C17.7407 9.53951 18.5381 9.96574 19.164 10.5916C19.7899 11.2175 20.2161 12.0149 20.3888 12.8831C20.5615 13.7512 20.4729 14.651 20.1341 15.4688C19.7954 16.2865 19.2218 16.9855 18.4858 17.4772C17.7499 17.969 16.8846 18.2315 15.9995 18.2315C14.8129 18.2302 13.6754 17.7583 12.8364 16.9193C11.9974 16.0803 11.5254 14.9427 11.5242 13.7561Z" fill="#1E2F4D"/>
</svg>
