<svg width="22" height="22" viewBox="0 0 22 22" fill="none" xmlns="http://www.w3.org/2000/svg">
<path d="M18.8926 12.6377L18.893 12.6377L18.8916 12.6276C18.862 12.4121 18.7554 12.2147 18.5915 12.0717C18.4276 11.9288 18.2175 11.85 18 11.85H10.15V4C10.15 3.76131 10.0552 3.53239 9.8864 3.3636C9.71761 3.19482 9.4887 3.1 9.25 3.1C4.1861 3.1 0.6 7.20866 0.6 12.25C0.6 14.6767 1.56401 17.0041 3.27997 18.72C4.99593 20.436 7.32327 21.4 9.75 21.4C14.7913 21.4 18.9 17.8139 18.9 12.75H18.9004L18.8996 12.7397L18.8926 12.6377ZM8.35735 12.8623L8.35701 12.8623L8.35839 12.8724C8.38797 13.0879 8.49457 13.2853 8.65848 13.4283C8.82238 13.5712 9.03251 13.65 9.24999 13.65H17.0454L17.041 13.6916C16.5795 17.2916 13.5051 19.6 9.75 19.6C7.80066 19.6 5.93116 18.8256 4.55277 17.4472C3.17437 16.0688 2.4 14.1993 2.4 12.25C2.4 8.49457 4.70781 5.41907 8.30905 4.95991L8.35 4.95521V12.75H8.34965L8.35035 12.7603L8.35735 12.8623ZM18.72 3.27997C17.0041 1.56401 14.6767 0.6 12.25 0.6C12.0113 0.6 11.7824 0.694821 11.6136 0.863604C11.4448 1.03239 11.35 1.26131 11.35 1.5V9.75C11.35 9.9887 11.4448 10.2176 11.6136 10.3864C11.7824 10.5552 12.0113 10.65 12.25 10.65H20.5C20.7387 10.65 20.9676 10.5552 21.1364 10.3864C21.3052 10.2176 21.4 9.9887 21.4 9.75C21.4 7.32327 20.436 4.99593 18.72 3.27997ZM19.5446 8.85H13.15V2.45521L13.1908 2.4599C14.8018 2.66839 16.2984 3.40438 17.447 4.55301C18.5955 5.70155 19.3315 7.19802 19.5401 8.80883C19.5401 8.8093 19.5402 8.80976 19.5402 8.81023L19.5446 8.85Z" fill="#1E2F4D" stroke="#1E2F4D" stroke-width="0.3"/>
</svg>
