<svg width="20" height="24" viewBox="0 0 20 24" fill="none" xmlns="http://www.w3.org/2000/svg">
<path d="M18 13.5V3C18 2.73478 17.8946 2.48043 17.7071 2.29289C17.5196 2.10536 17.2652 2 17 2H3C2.73478 2 2.48043 2.10536 2.29289 2.29289C2.10536 2.48043 2 2.73478 2 3V21C2 21.2652 2.10536 21.5196 2.29289 21.7071C2.48043 21.8946 2.73478 22 3 22H8.5M6.5 6H13.5M6.5 10H13.5M6.5 14H9.5" stroke="#1E2F4D" stroke-width="2.3" stroke-linecap="round" stroke-linejoin="round"/>
<path d="M17.5001 21.9999L15.7676 20.2674M15.7676 20.2674C16.0045 20.0364 16.1933 19.7606 16.3228 19.456C16.4523 19.1514 16.5201 18.8242 16.5222 18.4932C16.5242 18.1622 16.4606 17.8342 16.3349 17.528C16.2092 17.2218 16.0239 16.9437 15.7899 16.7096C15.5558 16.4756 15.2776 16.2904 14.9714 16.1648C14.6653 16.0391 14.3372 15.9755 14.0062 15.9776C13.6752 15.9797 13.348 16.0475 13.0434 16.1771C12.7389 16.3067 12.4631 16.4954 12.2321 16.7324C11.7667 17.2021 11.5063 17.8369 11.5078 18.498C11.5094 19.1592 11.7727 19.7928 12.2403 20.2602C12.7079 20.7277 13.3416 20.9908 14.0027 20.9922C14.6638 20.9936 15.2981 20.733 15.7676 20.2674Z" stroke="#1E2F4D" stroke-width="2.3" stroke-linecap="round" stroke-linejoin="round"/>
</svg>
