<svg width="120" height="156" viewBox="0 0 30 39" fill="none" xmlns="http://www.w3.org/2000/svg">
<path d="M28.2982 19.0568C27.5797 18.4879 26.7264 18.181 25.8357 18.181C25.5138 18.181 25.192 18.2184 24.8701 18.3008C25.2743 17.3277 25.6785 16.3472 26.0677 15.3592C26.1276 15.1945 26.195 15.0373 26.2623 14.8727C26.7563 13.6526 27.3102 12.2679 27.4674 10.6661V10.6362C27.6994 8.2709 26.906 6.69906 25.1021 5.9805C24.6007 5.77841 24.0917 5.6811 23.5827 5.6811C23.2159 5.6811 22.7968 5.7335 22.3552 5.8832C22.3926 5.32931 22.3851 4.75296 22.3177 4.15416C22.0109 1.4446 20.1171 0.673648 19.3237 0.464069C18.9944 0.381734 18.6651 0.336824 18.3357 0.336824C17.6247 0.336824 16.3148 0.553889 15.222 1.92364C14.436 0.501494 13.1112 0.13473 12.4675 0.0374249C12.2654 0.01497 12.0708 0 11.8837 0C10.8358 0 9.36123 0.411674 8.31334 2.35777C7.88669 3.15118 7.6322 3.94459 7.44508 4.70057C7.07083 4.52093 6.65915 4.39368 6.21006 4.3338C5.99299 4.29638 5.77593 4.28141 5.56635 4.28141C4.09929 4.28141 2.84181 5.03739 2.12326 6.36223C1.7041 7.13319 1.54691 7.93408 1.42715 8.52539L1.39721 8.67509C0.708595 12.0658 -0.0698429 16.5418 0.00500694 21.1825C0.109797 27.904 3.50798 32.7019 9.34626 34.4833L12.2654 38.3755C12.4525 38.6225 12.8193 38.6225 13.0064 38.3755L15.7235 34.7528C21.704 33.6076 27.6919 29.0642 29.3985 23.9819C30.2892 21.3397 29.2937 19.8502 28.2982 19.0568ZM26.9135 23.1286C25.2369 28.1136 18.4106 32.3875 12.9091 32.3875C12.1382 32.3875 11.3897 32.3052 10.6861 32.1255C5.62623 30.8381 2.72205 26.9384 2.62475 21.1376C2.56487 17.1107 3.17115 13.1436 3.97205 9.20653C4.16666 8.25593 4.36127 6.92361 5.56635 6.92361C5.64868 6.92361 5.74599 6.93109 5.83581 6.94606C7.3328 7.16313 6.83879 8.64515 6.94358 9.65563C7.00346 10.1945 6.89119 10.7484 6.87622 11.0254C6.87622 12.1781 6.85376 13.0688 6.8837 13.952C6.89867 14.3786 7.00346 14.8352 7.55735 14.8502C7.56484 14.8502 7.57981 14.8502 7.58729 14.8502C8.05885 14.8502 8.14118 14.4161 8.24597 14.0718C8.94207 11.7589 9.12171 9.34874 9.63069 6.99846C9.8777 5.84577 10.0424 4.67063 10.6112 3.60776C10.8957 3.06884 11.2549 2.63471 11.8762 2.63471C11.9436 2.63471 12.0109 2.6422 12.0858 2.64968C12.8567 2.76196 13.0738 3.37573 13.1711 4.01943C13.5229 6.36972 12.8118 8.63018 12.5349 10.9206C12.3852 12.1332 12.0633 13.3308 12.1382 14.5658C12.1606 14.9475 12.1831 15.3816 12.6546 15.464C12.692 15.4715 12.7295 15.4715 12.7669 15.4715C13.1411 15.4715 13.3283 15.1421 13.478 14.8128C14.0992 13.458 14.3088 11.9835 14.6905 10.5613C15.192 8.69006 15.6486 6.79636 16.4345 5.01494C16.6366 4.55835 16.8911 4.10925 17.1756 3.69758C17.4675 3.27842 17.8417 2.96405 18.3432 2.96405C18.448 2.96405 18.5603 2.97902 18.68 3.00896C19.3986 3.19609 19.6456 3.76495 19.7204 4.43111C19.8926 5.9805 19.5109 7.45504 19.1291 8.9221C18.5678 11.0853 17.9914 13.2409 17.4151 15.4041C17.2953 15.8682 17.1531 16.437 17.6546 16.6466C17.7294 16.6765 17.8043 16.6915 17.8717 16.6915C18.2459 16.6915 18.5079 16.2649 18.7249 15.9505C19.5184 14.7978 19.96 13.4655 20.5737 12.2155C21.0528 11.235 21.5917 10.2769 22.168 9.34874C22.5123 8.79485 22.9614 8.30084 23.5902 8.30084C23.7623 8.30084 23.942 8.33827 24.1366 8.41312C25.0348 8.7724 24.9375 9.63317 24.8626 10.3817C24.7204 11.7814 24.1441 13.0688 23.6351 14.3562C22.692 16.7514 21.6665 19.1092 20.686 21.4819C20.4689 22.0133 20.0872 22.6121 20.6636 23.1061C20.9031 23.3157 21.1501 23.3981 21.3971 23.3981C21.7863 23.3981 22.1755 23.1885 22.5123 22.9415C23.2309 22.4325 23.8447 21.7813 24.5707 21.2798C24.9599 21.0103 25.4015 20.7933 25.8432 20.7933C26.1276 20.7933 26.4045 20.8831 26.6815 21.1002C27.3402 21.6615 27.1455 22.4475 26.9135 23.1286Z" fill="#FF2F7D"/>
</svg>
